<svg width="512" height="512" fill="none" xmlns="http://www.w3.org/2000/svg" viewBox="0 0 512 512"><path fill-rule="evenodd" clip-rule="evenodd" d="M155.138 0h201.724c53.945 0 73.506 5.617 93.228 16.164 19.721 10.547 35.199 26.025 45.746 45.746C506.383 81.632 512 101.193 512 155.138v201.724c0 53.945-5.617 73.506-16.164 93.228-10.547 19.721-26.025 35.199-45.746 45.746C430.368 506.383 410.807 512 356.862 512H155.138c-53.945 0-73.506-5.617-93.228-16.164-19.721-10.547-35.199-26.025-45.746-45.746C5.617 430.368 0 410.807 0 356.862V155.138c0-53.945 5.617-73.506 16.164-93.228C26.711 42.19 42.189 26.711 61.91 16.164 81.632 5.617 101.193 0 155.138 0z" fill="url(#paint0_linear)"/><path fill-rule="evenodd" clip-rule="evenodd" d="M225.074 325.766v-160.94h70.544c10.248 0 14.182 10.248 14.182 16.522v208.897h52.79V286.174c0-19.357 4.148-32.931 12.443-40.724 8.547-7.793 21.116-11.689 37.707-11.689h13.952v-55.429c-14.078 0-26.647 3.142-37.707 9.426-10.81 6.285-19.608 14.958-26.395 26.018v-32.428c0-41.41-24.516-64.834-52.79-64.834H171.907v208.875c0 43.237 22.247 64.856 66.742 64.856h33.182v-44.494h-24.51c-8.044 0-13.826-1.509-17.345-4.525-3.268-3.268-4.902-8.421-4.902-15.46zm-107.341-89.201c16.171 0 29.28-13.11 29.28-29.281s-13.109-29.28-29.28-29.28-29.28 13.109-29.28 29.28 13.109 29.281 29.28 29.281z" fill="#fff"/><defs><linearGradient id="paint0_linear" x1="68.716" y1="565.895" x2="517.684" y2="-195.337" gradientUnits="userSpaceOnUse"><stop stop-color="#117BF9"/><stop offset="1" stop-color="#11EBF9"/></linearGradient></defs></svg>